<svg xmlns="http://www.w3.org/2000/svg" xmlns:xlink="http://www.w3.org/1999/xlink" width="1080" zoomAndPan="magnify" viewBox="0 0 810 809.999993" height="1080" preserveAspectRatio="xMidYMid meet" version="1.0"><path fill="#171d8f" d="M 76.257812 348.789062 C 76.257812 348.789062 16.464844 358.234375 18.167969 379.488281 C 19.078125 390.867188 89.355469 493.003906 135.359375 604.457031 C 175.292969 701.199219 190.414062 810 207.007812 810 C 320.714844 810 389.664062 756.707031 510.585938 735.933594 C 620.609375 717.027344 688.386719 730.839844 707.019531 723.953125 C 746.136719 709.5 681.460938 608.457031 646.925781 512.082031 C 612.394531 415.707031 381.332031 244.445312 381.332031 244.445312 Z M 76.257812 348.789062 " fill-opacity="1" fill-rule="nonzero"/><path fill="#7738c7" d="M 295.023438 175.59375 C 274.546875 196.246094 137.363281 279.042969 78.644531 286.519531 C 19.925781 293.996094 48.300781 317.972656 74.941406 381.128906 C 87.464844 410.816406 136.726562 462.757812 178.324219 536.71875 C 225.214844 620.089844 264.972656 725.265625 280.800781 740.789062 C 310.667969 770.078125 367.496094 694.871094 478.015625 690.3125 C 643.734375 683.472656 760.800781 647.101562 764.46875 616.710938 C 768.132812 586.324219 482.253906 128.808594 482.253906 128.808594 Z M 295.023438 175.59375 " fill-opacity="1" fill-rule="nonzero"/><path fill="#ffc517" d="M 60.414062 181.609375 C 317.816406 145.925781 429.363281 -0.078125 463.96875 38.847656 C 494.535156 73.226562 677.617188 371.351562 756.53125 457.945312 C 786.203125 483.691406 793.808594 499.382812 764.96875 523.039062 C 713.171875 564.8125 594.792969 620.914062 540.605469 635.757812 C 461.65625 657.382812 394.601562 651.976562 308.082031 601.15625 C 221.558594 550.335938 256.167969 573.042969 198.847656 483.292969 C 141.527344 393.546875 67.984375 256.21875 56.085938 231.347656 C 44.191406 206.480469 38.785156 184.855469 60.414062 181.609375 Z M 60.414062 181.609375 " fill-opacity="1" fill-rule="nonzero"/><path fill="#ffffff" d="M 335.578125 132.910156 C 335.578125 132.910156 251.457031 176.492188 214.75 186.433594 C 178.042969 196.371094 193.339844 213.195312 251.457031 191.785156 C 309.582031 170.375 342.464844 151.261719 353.933594 139.03125 C 365.40625 126.796875 357.757812 122.972656 335.578125 132.910156 Z M 335.578125 132.910156 " fill-opacity="1" fill-rule="nonzero"/><path fill="#7738c7" d="M 478.238281 199.15625 C 385.046875 264.59375 332.0625 272.074219 310.027344 281.652344 C 287.992188 291.230469 305.828125 302.214844 326.5625 296.660156 C 363.46875 286.773438 472.492188 231.726562 492.609375 214.484375 C 512.730469 197.242188 499.316406 181.914062 478.238281 199.15625 Z M 478.238281 199.15625 " fill-opacity="1" fill-rule="nonzero"/><path fill="#7738c7" d="M 256.691406 304.085938 C 217.734375 314.246094 202.832031 316.953125 210.28125 338.289062 C 217.734375 359.625 227.898438 376.558594 247.542969 373.171875 C 267.191406 369.785156 292.257812 362.675781 292.597656 347.097656 C 292.933594 331.515625 269.898438 300.359375 256.691406 304.085938 Z M 256.691406 304.085938 " fill-opacity="1" fill-rule="nonzero"/><path fill="#7738c7" d="M 313.21875 388.378906 C 274.261719 398.539062 259.359375 401.25 266.808594 422.585938 C 274.261719 443.921875 284.425781 460.851562 304.070312 457.464844 C 323.71875 454.078125 348.785156 446.96875 349.125 431.386719 C 349.460938 415.8125 326.429688 384.652344 313.21875 388.378906 Z M 313.21875 388.378906 " fill-opacity="1" fill-rule="nonzero"/><path fill="#7738c7" d="M 367.347656 476.027344 C 328.394531 486.1875 313.488281 488.898438 320.941406 510.234375 C 328.394531 531.570312 338.554688 548.503906 358.203125 545.117188 C 377.847656 541.730469 402.917969 534.617188 403.253906 519.039062 C 403.59375 503.460938 380.558594 472.300781 367.347656 476.027344 Z M 367.347656 476.027344 " fill-opacity="1" fill-rule="nonzero"/><path fill="#ffaa17" d="M 237.570312 549.554688 C 237.570312 549.554688 302.132812 568.71875 346.472656 545.46875 C 390.816406 522.222656 383.789062 517.359375 427.589844 583.316406 C 448.875 615.371094 505.457031 641.390625 518.976562 640.308594 C 532.496094 639.226562 470.304688 669.824219 380 644.410156 C 289.695312 619 250.546875 573.339844 237.570312 549.554688 Z M 237.570312 549.554688 " fill-opacity="1" fill-rule="nonzero"/><path fill="#7738c7" d="M 477.898438 247.585938 C 384.707031 313.023438 356.789062 308.988281 334.753906 318.566406 C 312.71875 328.144531 330.554688 339.128906 351.289062 333.574219 C 388.195312 323.6875 472.152344 280.15625 492.269531 262.910156 C 512.394531 245.671875 498.980469 230.34375 477.898438 247.585938 Z M 477.898438 247.585938 " fill-opacity="1" fill-rule="nonzero"/><path fill="#7738c7" d="M 534.765625 286.328125 C 441.570312 351.765625 388.589844 359.242188 366.554688 368.820312 C 344.515625 378.398438 362.351562 389.382812 383.089844 383.828125 C 419.996094 373.941406 529.015625 318.894531 549.136719 301.652344 C 569.257812 284.410156 555.84375 269.085938 534.765625 286.328125 Z M 534.765625 286.328125 " fill-opacity="1" fill-rule="nonzero"/><path fill="#7738c7" d="M 534.425781 334.757812 C 441.234375 400.195312 413.316406 396.15625 391.28125 405.734375 C 369.246094 415.316406 387.082031 426.300781 407.816406 420.746094 C 444.722656 410.859375 528.679688 367.324219 548.796875 350.082031 C 568.917969 332.839844 555.507812 317.515625 534.425781 334.757812 Z M 534.425781 334.757812 " fill-opacity="1" fill-rule="nonzero"/><path fill="#7738c7" d="M 559.886719 396.183594 C 451.492188 461.621094 447.488281 448.328125 421.859375 457.90625 C 396.226562 467.484375 416.972656 478.46875 441.09375 472.914062 C 484.015625 463.027344 553.203125 428.75 576.601562 411.511719 C 600.003906 394.265625 584.402344 378.941406 559.886719 396.183594 Z M 559.886719 396.183594 " fill-opacity="1" fill-rule="nonzero"/><path fill="#7738c7" d="M 559.492188 444.613281 C 451.097656 510.046875 476.25 485.242188 450.621094 494.820312 C 424.988281 504.398438 445.734375 515.382812 469.851562 509.828125 C 512.777344 499.941406 552.808594 477.179688 576.210938 459.9375 C 599.609375 442.695312 584.007812 427.367188 559.492188 444.613281 Z M 559.492188 444.613281 " fill-opacity="1" fill-rule="nonzero"/><path fill="#ffffff" d="M 424.65625 128.5625 C 292.835938 212.183594 183.746094 227.632812 162.835938 236.722656 C 141.925781 245.8125 164.652344 260.355469 227.382812 240.359375 C 290.109375 220.363281 419.199219 159.464844 438.292969 143.105469 C 457.382812 126.746094 444.65625 112.199219 424.65625 128.5625 Z M 424.65625 128.5625 " fill-opacity="1" fill-rule="nonzero"/><path fill="#ff4b3d" d="M 655.449219 392.074219 C 653.058594 391.972656 652.175781 395.097656 653.589844 398.402344 C 654.832031 400.789062 656.445312 404.066406 658.222656 407.519531 C 653.839844 410.21875 650.199219 412.984375 649.039062 415.4375 C 646.207031 421.414062 650.613281 423.617188 656.59375 422.042969 C 658.367188 421.578125 661.066406 419.96875 664.023438 417.90625 C 666.589844 421.984375 669.199219 425.304688 671.527344 426.40625 C 677.503906 429.238281 679.707031 424.835938 678.132812 418.855469 C 677.625 416.914062 675.753906 413.875 673.398438 410.582031 C 677.324219 407.214844 680.707031 403.972656 682.085938 402.222656 C 685.546875 397.820312 681.453125 395.613281 677.050781 397.503906 C 674.46875 398.84375 670.859375 400.609375 667.097656 402.5625 C 663.578125 398.421875 660.136719 394.804688 658.3125 393.371094 C 657.214844 392.503906 656.246094 392.109375 655.449219 392.074219 Z M 612.390625 415.703125 C 605.449219 415.984375 601.644531 420.574219 606.070312 429.867188 C 607.433594 453.9375 617.570312 510.40625 630.472656 538.410156 C 630.472656 538.410156 632.503906 556.035156 637.226562 554.460938 C 641.945312 552.886719 657.054688 551.632812 660.199219 542.820312 C 662.382812 536.707031 653.511719 524.535156 646.925781 512.082031 C 662.464844 503.820312 671.898438 498.265625 677.324219 494.367188 C 684.269531 500.492188 690.375 505.515625 693.871094 507.582031 C 706.144531 514.816406 716.84375 505.0625 718.417969 494.996094 C 719.988281 484.929688 656.738281 450.003906 640.6875 430.808594 C 632.164062 420.613281 620.261719 415.390625 612.390625 415.703125 Z M 630.5 449.609375 C 630.808594 449.597656 631.257812 449.925781 631.878906 450.632812 C 635.242188 454.476562 648.074219 467.289062 661.480469 479.902344 C 655.949219 482.976562 646.503906 487.96875 640.019531 492.46875 C 636.671875 476.53125 627.753906 449.6875 630.5 449.609375 Z M 630.5 449.609375 " fill-opacity="1" fill-rule="nonzero"/><path fill="#ffffff" d="M 207.277344 340.316406 C 213.289062 342.421875 244.859375 365.265625 262.898438 352.039062 C 280.9375 338.8125 280.636719 272.683594 268.910156 269.679688 C 257.1875 266.671875 255.679688 331.597656 248.765625 333.703125 C 241.851562 335.808594 222.007812 331.898438 211.484375 331 C 200.960938 330.097656 201.265625 337.011719 207.277344 340.316406 Z M 207.277344 340.316406 " fill-opacity="1" fill-rule="nonzero"/><path fill="#ffffff" d="M 258.988281 428.089844 C 265 430.191406 296.570312 453.035156 314.605469 439.8125 C 332.644531 426.582031 332.347656 360.457031 320.621094 357.449219 C 308.894531 354.445312 307.390625 419.371094 300.476562 421.476562 C 293.558594 423.578125 273.71875 419.671875 263.195312 418.769531 C 252.675781 417.867188 252.976562 424.78125 258.988281 428.089844 Z M 258.988281 428.089844 " fill-opacity="1" fill-rule="nonzero"/><path fill="#ffffff" d="M 313.707031 509.246094 C 319.71875 511.351562 351.289062 534.195312 369.324219 520.96875 C 387.363281 507.742188 387.066406 441.613281 375.339844 438.609375 C 363.613281 435.601562 362.109375 500.53125 355.195312 502.632812 C 348.277344 504.738281 328.4375 500.828125 317.914062 499.929688 C 307.390625 499.027344 307.691406 505.941406 313.707031 509.246094 Z M 313.707031 509.246094 " fill-opacity="1" fill-rule="nonzero"/><path fill="#ff4b3d" d="M 658.445312 32.320312 C 590.078125 32.53125 534.769531 89.332031 534.769531 159.320312 C 534.769531 215.222656 570.476562 264.554688 622.71875 280.824219 C 620.917969 290.761719 616.503906 302.285156 606.25 311.183594 C 583.714844 330.738281 625.382812 338.816406 679.804688 294.179688 C 685.332031 289.648438 690.261719 285.214844 694.707031 280.894531 C 747.0625 264.695312 782.878906 215.3125 782.878906 159.320312 C 782.878906 89.179688 727.335938 32.316406 658.824219 32.316406 C 658.699219 32.320312 658.574219 32.320312 658.445312 32.320312 Z M 658.445312 32.320312 " fill-opacity="1" fill-rule="nonzero"/><path fill="#ffffff" d="M 655.460938 129.035156 C 655.460938 129.035156 641.824219 102.511719 647.671875 89.144531 C 653.527344 75.773438 630.121094 81.828125 624.6875 99.796875 C 619.253906 117.765625 621.980469 121.652344 621.980469 121.652344 C 621.980469 121.652344 596.953125 125.066406 585.457031 125.691406 C 575.183594 126.253906 568.679688 131.101562 572.859375 142.175781 C 577.039062 153.25 581.070312 152.019531 580.023438 160.375 C 578.980469 168.730469 579.191406 173.328125 587.757812 178.550781 C 596.324219 183.773438 584.832031 188.789062 598.414062 197.144531 C 611.996094 205.5 598.625 210.722656 618.058594 213.648438 C 637.492188 216.574219 660.058594 208.007812 681.371094 202.992188 C 702.6875 197.980469 708.953125 207.378906 715.851562 201.949219 C 722.746094 196.515625 731.335938 166.972656 728.199219 148.167969 C 725.066406 129.367188 718.566406 126.945312 709.160156 132.167969 C 699.757812 137.394531 682.835938 138.230469 674.265625 138.855469 C 665.9375 137.730469 661.347656 131.453125 655.460938 129.035156 Z M 655.460938 129.035156 " fill-opacity="1" fill-rule="nonzero"/><path fill="#cf1531" d="M 780.824219 136.304688 C 774.972656 168.097656 752.851562 222.976562 670.078125 233.109375 C 614.867188 239.871094 574.171875 227.894531 546.511719 213.253906 C 561.425781 245.804688 589.117188 270.359375 622.71875 280.824219 C 620.921875 290.761719 616.507812 302.285156 606.25 311.183594 C 583.714844 330.738281 625.382812 338.816406 679.808594 294.179688 C 685.332031 289.648438 690.265625 285.214844 694.710938 280.894531 C 747.0625 264.695312 782.878906 215.3125 782.878906 159.320312 C 782.878906 151.601562 782.191406 143.898438 780.824219 136.304688 Z M 780.824219 136.304688 " fill-opacity="1" fill-rule="nonzero"/></svg>